<?xml version="1.0" standalone="no"?>
<!DOCTYPE svg PUBLIC "-//W3C//DTD SVG 20010904//EN"
 "http://www.w3.org/TR/2001/REC-SVG-20010904/DTD/svg10.dtd">
<svg version="1.0" xmlns="http://www.w3.org/2000/svg"
 width="149.000000pt" height="149.000000pt" viewBox="0 0 149.000000 149.000000"
 preserveAspectRatio="xMidYMid meet">
<metadata>
Created by potrace 1.11, written by Peter Selinger 2001-2013
</metadata>
<g transform="translate(0.000000,149.000000) scale(0.100000,-0.100000)"
fill="#000000" stroke="none">
<path d="M625 1419 c-27 -3 -95 -12 -150 -18 -55 -6 -106 -14 -114 -17 -7 -2
-48 -11 -90 -20 -42 -8 -85 -19 -96 -24 -11 -5 -31 -10 -44 -12 -13 -2 -27
-10 -32 -18 -76 -150 -103 -266 -97 -424 4 -104 8 -118 55 -197 79 -133 174
-214 263 -226 41 -6 41 -6 101 -122 78 -150 120 -232 129 -251 6 -13 51 -15
311 -15 269 0 311 2 362 19 44 14 61 25 68 43 15 40 11 81 -8 87 -152 46 -216
56 -347 56 l-135 0 -11 43 c-10 37 -21 79 -36 142 -5 20 -5 20 10 1 9 -11 16
-28 16 -39 0 -10 8 -32 18 -49 l17 -30 110 7 c69 4 120 3 137 -4 30 -11 255
-18 265 -8 3 4 1 39 -4 79 -11 76 -3 118 21 118 7 0 44 28 81 63 l68 62 -7 51
c-6 41 -12 54 -31 62 -22 10 -42 35 -98 122 -35 56 -33 214 4 307 12 29 10 35
-21 86 -39 65 -86 93 -170 103 -30 3 -68 10 -85 14 -37 11 -392 18 -460 9z"/>
</g>
</svg>
